<svg height="24" width="24" xmlns="http://www.w3.org/2000/svg"><g transform="translate(0 -1028.4)"><path d="m17 1031.4h3v5.9999h-3z" fill="#c0392b"/><path d="m12 3.0312-9 8.9688v1.812 5.376 1.812h1 8 8 1v-1.812-5.376-1.812z" fill="#bdc3c7" transform="translate(0 1028.4)"/><path d="m12 1032-9 8.9v1.9.1l9-9 9 9v-.1-1.9z" fill="#95a5a6"/><path d="m12 1029.4-11.314 11.3 1.4145 1.4 9.8995-9.9 9.899 9.9 1.415-1.4z" fill="#e74c3c"/><path d="m14 9a2 2 0 1 1 -4 0 2 2 0 1 1 4 0z" fill="#3498db" transform="translate(0 1029.4)"/><path d="m10 1043.4h4v6h-4z" fill="#e67e22"/><path d="m12 17.5a.5.5 0 1 1 -1 0 .5.5 0 1 1 1 0z" fill="#d35400" transform="translate(1.5 1029.4)"/><path d="m12 1036.4c-1.105 0-2 .9-2 2 0 .1.021.3.062.5.222-.9 1.006-1.5 1.938-1.5s1.716.6 1.938 1.5c.041-.2.062-.4.062-.5 0-1.1-.895-2-2-2z" fill="#2980b9"/><path d="m12 17.5a.5.5 0 1 1 -1 0 .5.5 0 1 1 1 0z" fill="#f1c40f" transform="translate(1.5 1028.9)"/><path d="m10 1042.4h4v1h-4z" fill="#d35400"/></g></svg>